<svg xmlns="http://www.w3.org/2000/svg" version="1.1" width="696" height="400"><defs><clipPath id="highcharts-7"><rect rx="0" ry="0" fill="none" x="0" y="0" width="621" height="294" stroke-width="0.000001"></rect></clipPath></defs><rect rx="5" ry="5" fill="#FFFFFF" x="0" y="0" width="696" height="400" stroke-width="0.000001" stroke="#4572A7"></rect><text x="348" y="25" style="font-family:'lucida grande', 'lucida sans unicode', verdana, arial, helvetica, sans-serif;font-size:12px;color:#3e576f;font-size:16px;fill:#3e576f;" text-anchor="middle" class="highcharts-title" ><tspan x="348">Chart title</tspan></text><g class="highcharts-grid" ></g><g class="highcharts-grid" ><path d="M 65 334.5 L 686 334.5" fill="none" stroke="#C0C0C0" stroke-width="1"></path><path d="M 65 275.5 L 686 275.5" fill="none" stroke="#C0C0C0" stroke-width="1"></path><path d="M 65 216.5 L 686 216.5" fill="none" stroke="#C0C0C0" stroke-width="1"></path><path d="M 65 158.5 L 686 158.5" fill="none" stroke="#C0C0C0" stroke-width="1"></path><path d="M 65 99.5 L 686 99.5" fill="none" stroke="#C0C0C0" stroke-width="1"></path><path d="M 65 40.5 L 686 40.5" fill="none" stroke="#C0C0C0" stroke-width="1"></path></g><g class="highcharts-series-group" ><g class="highcharts-series" clip-path="url(#highcharts-7)" visibility="visible" transform="translate(65,40)"><path d="M 25.875 258.8376 L 77.625 209.916 L 129.375 168.8736 L 181.125 142.06080000000003 L 232.875 124.656 L 284.625 87.024 L 336.375 134.5344 L 388.125 119.364 L 439.875 39.5136 L 491.625 65.73840000000001 L 543.375 181.57440000000003 L 595.125 230.0256" fill="none" stroke="rgb(0, 0, 0)" stroke-width="5"  stroke-opacity="0.05" transform="translate(1,1)"></path><path d="M 25.875 258.8376 L 77.625 209.916 L 129.375 168.8736 L 181.125 142.06080000000003 L 232.875 124.656 L 284.625 87.024 L 336.375 134.5344 L 388.125 119.364 L 439.875 39.5136 L 491.625 65.73840000000001 L 543.375 181.57440000000003 L 595.125 230.0256" fill="none" stroke="rgb(0, 0, 0)" stroke-width="3"  stroke-opacity="0.1" transform="translate(1,1)"></path><path d="M 25.875 258.8376 L 77.625 209.916 L 129.375 168.8736 L 181.125 142.06080000000003 L 232.875 124.656 L 284.625 87.024 L 336.375 134.5344 L 388.125 119.364 L 439.875 39.5136 L 491.625 65.73840000000001 L 543.375 181.57440000000003 L 595.125 230.0256" fill="none" stroke="rgb(0, 0, 0)" stroke-width="1"  stroke-opacity="0.15000000000000002" transform="translate(1,1)"></path><path d="M 25.875 258.8376 L 77.625 209.916 L 129.375 168.8736 L 181.125 142.06080000000003 L 232.875 124.656 L 284.625 87.024 L 336.375 134.5344 L 388.125 119.364 L 439.875 39.5136 L 491.625 65.73840000000001 L 543.375 181.57440000000003 L 595.125 230.0256" fill="none" stroke="#4572A7" stroke-width="2"></path><circle cx="595.125" cy="230.0256" r="4" stroke="#FFFFFF" stroke-width="0.000001" fill="#4572A7"></circle><circle cx="543.375" cy="181.57440000000003" r="4" stroke="#FFFFFF" stroke-width="0.000001" fill="#4572A7"></circle><circle cx="491.625" cy="65.73840000000001" r="4" stroke="#FFFFFF" stroke-width="0.000001" fill="#4572A7"></circle><circle cx="439.875" cy="39.5136" r="4" stroke="#FFFFFF" stroke-width="0.000001" fill="#4572A7"></circle><circle cx="388.125" cy="119.364" r="4" stroke="#FFFFFF" stroke-width="0.000001" fill="#4572A7"></circle><circle cx="336.375" cy="134.5344" r="4" stroke="#FFFFFF" stroke-width="0.000001" fill="#4572A7"></circle><circle cx="284.625" cy="87.024" r="4" stroke="#FFFFFF" stroke-width="0.000001" fill="#4572A7"></circle><circle cx="232.875" cy="124.656" r="4" stroke="#FFFFFF" stroke-width="0.000001" fill="#4572A7"></circle><circle cx="181.125" cy="142.06080000000003" r="4" stroke="#FFFFFF" stroke-width="0.000001" fill="#4572A7"></circle><circle cx="129.375" cy="168.8736" r="4" stroke="#FFFFFF" stroke-width="0.000001" fill="#4572A7"></circle><circle cx="77.625" cy="209.916" r="4" stroke="#FFFFFF" stroke-width="0.000001" fill="#4572A7"></circle><circle cx="25.875" cy="258.8376" r="4" stroke="#FFFFFF" stroke-width="0.000001" fill="#4572A7"></circle></g></g><g class="highcharts-legend"  transform="translate(295,359)"><rect rx="5" ry="5" fill="none" x="0.5" y="0.5" width="106" height="25" stroke-width="1" stroke="#909090" visibility="visible"></rect><text x="30" y="18" style="font-family:'lucida grande', 'lucida sans unicode', verdana, arial, helvetica, sans-serif;font-size:12px;cursor:pointer;color:#3e576f;fill:#3e576f;" ><tspan x="30">Series 1</tspan></text><path d="M -21 0 L -5 0" fill="none" stroke-width="2"  stroke="#4572A7" transform="translate(30,14)"></path><circle cx="17" cy="14" r="4"  stroke="#4572A7" fill="#4572A7"></circle></g><g class="highcharts-axis" ><text x="90.875" y="348" style="font-family:'lucida grande', 'lucida sans unicode', verdana, arial, helvetica, sans-serif;font-size:12px;width:31.75px;color:#666;font-size:11px;line-height:14px;fill:#666;" text-anchor="middle"><tspan x="90.875">Jan</tspan></text><text x="142.625" y="348" style="font-family:'lucida grande', 'lucida sans unicode', verdana, arial, helvetica, sans-serif;font-size:12px;width:31.75px;color:#666;font-size:11px;line-height:14px;fill:#666;" text-anchor="middle"><tspan x="142.625">Feb</tspan></text><text x="194.375" y="348" style="font-family:'lucida grande', 'lucida sans unicode', verdana, arial, helvetica, sans-serif;font-size:12px;width:31.75px;color:#666;font-size:11px;line-height:14px;fill:#666;" text-anchor="middle"><tspan x="194.375">Mar</tspan></text><text x="246.125" y="348" style="font-family:'lucida grande', 'lucida sans unicode', verdana, arial, helvetica, sans-serif;font-size:12px;width:31.75px;color:#666;font-size:11px;line-height:14px;fill:#666;" text-anchor="middle"><tspan x="246.125">Apr</tspan></text><text x="297.875" y="348" style="font-family:'lucida grande', 'lucida sans unicode', verdana, arial, helvetica, sans-serif;font-size:12px;width:31.75px;color:#666;font-size:11px;line-height:14px;fill:#666;" text-anchor="middle"><tspan x="297.875">May</tspan></text><text x="349.625" y="348" style="font-family:'lucida grande', 'lucida sans unicode', verdana, arial, helvetica, sans-serif;font-size:12px;width:31.75px;color:#666;font-size:11px;line-height:14px;fill:#666;" text-anchor="middle"><tspan x="349.625">Jun</tspan></text><text x="401.375" y="348" style="font-family:'lucida grande', 'lucida sans unicode', verdana, arial, helvetica, sans-serif;font-size:12px;width:31.75px;color:#666;font-size:11px;line-height:14px;fill:#666;" text-anchor="middle"><tspan x="401.375">Jul</tspan></text><text x="453.125" y="348" style="font-family:'lucida grande', 'lucida sans unicode', verdana, arial, helvetica, sans-serif;font-size:12px;width:31.75px;color:#666;font-size:11px;line-height:14px;fill:#666;" text-anchor="middle"><tspan x="453.125">Aug</tspan></text><text x="504.875" y="348" style="font-family:'lucida grande', 'lucida sans unicode', verdana, arial, helvetica, sans-serif;font-size:12px;width:31.75px;color:#666;font-size:11px;line-height:14px;fill:#666;" text-anchor="middle"><tspan x="504.875">Sep</tspan></text><text x="556.625" y="348" style="font-family:'lucida grande', 'lucida sans unicode', verdana, arial, helvetica, sans-serif;font-size:12px;width:31.75px;color:#666;font-size:11px;line-height:14px;fill:#666;" text-anchor="middle"><tspan x="556.625">Oct</tspan></text><text x="608.375" y="348" style="font-family:'lucida grande', 'lucida sans unicode', verdana, arial, helvetica, sans-serif;font-size:12px;width:31.75px;color:#666;font-size:11px;line-height:14px;fill:#666;" text-anchor="middle"><tspan x="608.375">Nov</tspan></text><text x="660.125" y="348" style="font-family:'lucida grande', 'lucida sans unicode', verdana, arial, helvetica, sans-serif;font-size:12px;width:31.75px;color:#666;font-size:11px;line-height:14px;fill:#666;" text-anchor="middle"><tspan x="660.125">Dec</tspan></text><path d="M 117.5 334 L 117.5 339" fill="none" stroke="#C0D0E0" stroke-width="1"></path><path d="M 169.5 334 L 169.5 339" fill="none" stroke="#C0D0E0" stroke-width="1"></path><path d="M 220.5 334 L 220.5 339" fill="none" stroke="#C0D0E0" stroke-width="1"></path><path d="M 272.5 334 L 272.5 339" fill="none" stroke="#C0D0E0" stroke-width="1"></path><path d="M 324.5 334 L 324.5 339" fill="none" stroke="#C0D0E0" stroke-width="1"></path><path d="M 376.5 334 L 376.5 339" fill="none" stroke="#C0D0E0" stroke-width="1"></path><path d="M 427.5 334 L 427.5 339" fill="none" stroke="#C0D0E0" stroke-width="1"></path><path d="M 479.5 334 L 479.5 339" fill="none" stroke="#C0D0E0" stroke-width="1"></path><path d="M 531.5 334 L 531.5 339" fill="none" stroke="#C0D0E0" stroke-width="1"></path><path d="M 583.5 334 L 583.5 339" fill="none" stroke="#C0D0E0" stroke-width="1"></path><path d="M 634.5 334 L 634.5 339" fill="none" stroke="#C0D0E0" stroke-width="1"></path><path d="M 686.5 334 L 686.5 339" fill="none" stroke="#C0D0E0" stroke-width="1"></path></g><g class="highcharts-axis" ><text x="57" y="339.1" style="font-family:'lucida grande', 'lucida sans unicode', verdana, arial, helvetica, sans-serif;font-size:12px;width:290.5px;color:#666;font-size:11px;line-height:14px;fill:#666;" text-anchor="end"><tspan x="57">0</tspan></text><text x="57" y="280.3" style="font-family:'lucida grande', 'lucida sans unicode', verdana, arial, helvetica, sans-serif;font-size:12px;width:290.5px;color:#666;font-size:11px;line-height:14px;fill:#666;" text-anchor="end"><tspan x="57">50</tspan></text><text x="57" y="221.49999999999997" style="font-family:'lucida grande', 'lucida sans unicode', verdana, arial, helvetica, sans-serif;font-size:12px;width:290.5px;color:#666;font-size:11px;line-height:14px;fill:#666;" text-anchor="end"><tspan x="57">100</tspan></text><text x="57" y="162.70000000000002" style="font-family:'lucida grande', 'lucida sans unicode', verdana, arial, helvetica, sans-serif;font-size:12px;width:290.5px;color:#666;font-size:11px;line-height:14px;fill:#666;" text-anchor="end"><tspan x="57">150</tspan></text><text x="57" y="103.9" style="font-family:'lucida grande', 'lucida sans unicode', verdana, arial, helvetica, sans-serif;font-size:12px;width:290.5px;color:#666;font-size:11px;line-height:14px;fill:#666;" text-anchor="end"><tspan x="57">200</tspan></text><text x="57" y="45.1" style="font-family:'lucida grande', 'lucida sans unicode', verdana, arial, helvetica, sans-serif;font-size:12px;width:290.5px;color:#666;font-size:11px;line-height:14px;fill:#666;" text-anchor="end"><tspan x="57">250</tspan></text></g><text x="26" y="187" style="font-family:'lucida grande', 'lucida sans unicode', verdana, arial, helvetica, sans-serif;font-size:12px;color:#6d869f;font-weight:bold;fill:#6d869f;"  transform="rotate(270 26 187)" text-anchor="middle"><tspan x="26">Y-values</tspan></text><path d="M 65 334.5 L 686 334.5" fill="none" stroke="#C0D0E0" stroke-width="1" ></path><g class="highcharts-tooltip"  visibility="hidden"><rect rx="5" ry="5" fill="none" x="2" y="2" width="0" height="0" stroke-width="5" fill-opacity="0.85"  stroke="rgb(0, 0, 0)" stroke-opacity="0.05" transform="translate(1,1)"></rect><rect rx="5" ry="5" fill="none" x="2" y="2" width="0" height="0" stroke-width="3" fill-opacity="0.85"  stroke="rgb(0, 0, 0)" stroke-opacity="0.1" transform="translate(1,1)"></rect><rect rx="5" ry="5" fill="none" x="2" y="2" width="0" height="0" stroke-width="1" fill-opacity="0.85"  stroke="rgb(0, 0, 0)" stroke-opacity="0.15000000000000002" transform="translate(1,1)"></rect><rect rx="5" ry="5" fill="rgb(255,255,255)" x="2" y="2" width="0" height="0" stroke-width="2" fill-opacity="0.85"></rect><text x="2" y="14" style="font-family:'lucida grande', 'lucida sans unicode', verdana, arial, helvetica, sans-serif;font-size:12px;color:#333333;font-size:12px;padding:0;white-space:nowrap;fill:#333333;" ><tspan x="2"> </tspan></text></g><g class="highcharts-tracker"  transform="translate(65,40)"><path d="M 15.875 258.8376 L 25.875 258.8376 L 77.625 209.916 L 129.375 168.8736 L 181.125 142.06080000000003 L 232.875 124.656 L 284.625 87.024 L 336.375 134.5344 L 388.125 119.364 L 439.875 39.5136 L 491.625 65.73840000000001 L 543.375 181.57440000000003 L 595.125 230.0256 L 605.125 230.0256" fill="none"  stroke-opacity="0.000001" stroke="rgb(192,192,192)" stroke-width="22" visibility="visible"  style=""></path></g></svg>